# xmcd CD database file generated by Grip 3.2.0
# 
# Track frame offsets:
#       150
#       18512
#       37292
#       53012
#       67240
#       90270
#       111342
#       140082
#       153545
#       172157
#       188055
#       202737
#       215710
#       231942
#       248717
#       265532
# 
# Disc length: 3837 seconds
# 
# Revision: 3
# Processed by: cddbd v1.5.1PL0 Copyright (c) Steve Scherf et al.
# Submitted via: Grip 3.2.0
# 
DISCID=ea0efb10
DTITLE=Compilations - Adventures in Music - #52 Blues II Sampler
DYEAR=1992
DGENRE=Blues
TTITLE0=The Art Steele Blues Band - I'm Tore Down
TTITLE1=Natasha - High Cost Of Loving
TTITLE2=Troy Turner - Handful Of Aces
TTITLE3=Ted Taylor - It's A Funky Situation
TTITLE4=Bobby Powell - The Right Time
TTITLE5=Percy Mayfield - The River's Invitation
TTITLE6=Dr. John and Chris Barber - Such A Night
TTITLE7=Mr. B - Cow Cow Blues
TTITLE8=Memphis Slim - Rock Me Baby
TTITLE9=Robert Lowery - Midnight Run
TTITLE10=Son House - My Black Mamma Part 2
TTITLE11=Charley Patton - Down The Dirt Road Blues
TTITLE12=R.L. Burnside and The Sound Machine - Jumper On The Line
TTITLE13=The Kingsnakes - Cadillac Woman
TTITLE14=Ron Thompson - Honest I Do
TTITLE15=Jimmy Dawkins - Wes Cide Bluze
EXTD=
EXTT0=
EXTT1=
EXTT2=
EXTT3=
EXTT4=
EXTT5=
EXTT6=
EXTT7=
EXTT8=
EXTT9=
EXTT10=
EXTT11=
EXTT12=
EXTT13=
EXTT14=
EXTT15=
PLAYORDER=
